<?xml version="1.0" standalone="no"?>
<!DOCTYPE svg PUBLIC "-//W3C//DTD SVG 20010904//EN"
 "http://www.w3.org/TR/2001/REC-SVG-20010904/DTD/svg10.dtd">
<svg version="1.0" xmlns="http://www.w3.org/2000/svg"
 width="500.000000pt" height="500.000000pt" viewBox="0 0 500.000000 500.000000"
 preserveAspectRatio="xMidYMid meet">
<metadata>
Created by potrace 1.11, written by Peter Selinger 2001-2013
</metadata>
<g transform="translate(0.000000,500.000000) scale(0.100000,-0.100000)"
fill="#000000" stroke="none">
<path d="M0 2500 l0 -2500 2500 0 2500 0 0 2500 0 2500 -2500 0 -2500 0 0
-2500z m4500 0 l0 -2000 -2000 0 -2000 0 0 2000 0 2000 2000 0 2000 0 0 -2000z"/>
<path d="M620 2500 l0 -1880 1880 0 1880 0 0 1880 0 1880 -1880 0 -1880 0 0
-1880z m1760 1575 l0 -85 -125 0 -125 0 0 85 0 85 125 0 125 0 0 -85z m-380
-75 l0 -110 -140 0 -140 0 0 -330 0 -330 -145 0 -145 0 0 330 0 330 -145 0
-145 0 0 110 0 110 430 0 430 0 0 -110z m1084 -110 c105 -40 176 -132 176
-229 l0 -31 -118 0 -119 0 -12 40 c-6 22 -23 47 -36 56 -62 41 -160 22 -190
-36 -13 -26 -16 -54 -13 -136 3 -98 5 -105 31 -131 25 -25 34 -28 96 -28 80 0
104 15 123 77 l11 38 114 0 113 0 0 -32 c0 -67 -21 -112 -75 -165 -71 -69
-148 -94 -290 -94 -190 0 -293 57 -357 197 -32 71 -32 237 0 309 41 89 116
150 222 181 71 21 250 12 324 -16z m-704 -320 l0 -340 -125 0 -125 0 0 340 0
340 125 0 125 0 0 -340z m-380 -650 l0 -110 -140 0 -140 0 0 -330 0 -330 -145
0 -145 0 0 330 0 330 -145 0 -145 0 0 110 0 110 430 0 430 0 0 -110z m652
-109 c131 -50 147 -86 148 -311 0 -182 2 -190 57 -190 l34 0 -3 -77 c-3 -76
-3 -77 -33 -85 -16 -5 -62 -9 -101 -9 -79 -1 -153 24 -175 59 l-13 21 -28 -21
c-103 -73 -307 -82 -399 -17 -55 39 -76 157 -43 240 35 86 135 128 329 138
l120 6 -3 35 c-1 19 -10 42 -19 52 -38 42 -157 30 -169 -17 -6 -25 -7 -25
-130 -25 l-124 0 0 30 c0 70 42 124 123 160 73 32 122 39 252 36 93 -3 133 -8
177 -25z m843 4 c112 -39 180 -115 192 -214 l6 -52 -124 3 -124 3 -3 27 c-8
65 -90 104 -166 77 -57 -20 -76 -52 -83 -140 -10 -142 32 -209 130 -209 64 0
114 27 123 67 3 15 7 34 10 41 2 9 35 12 120 12 l117 0 -6 -49 c-7 -59 -34
-116 -74 -153 -100 -95 -341 -120 -493 -52 -113 51 -169 141 -178 284 -11 191
73 318 238 365 73 20 245 15 315 -10z m-1495 -975 l0 -110 -140 0 -140 0 0
-330 0 -330 -145 0 -145 0 0 330 0 330 -145 0 -145 0 0 110 0 110 430 0 430 0
0 -110z m645 -110 c150 -58 227 -214 196 -396 -21 -118 -78 -195 -177 -241
-105 -48 -295 -47 -400 3 -68 32 -135 106 -157 174 -21 66 -22 199 -2 268 30
100 111 175 225 207 80 22 237 15 315 -15z m858 0 c130 -49 197 -159 197 -320
l0 -50 -256 0 c-229 0 -256 -2 -250 -16 3 -9 6 -25 6 -36 0 -11 15 -35 34 -54
31 -31 39 -34 94 -34 50 0 66 4 91 25 16 14 31 36 33 48 3 21 8 22 126 25 119
3 122 2 122 -19 0 -93 -78 -185 -186 -219 -121 -37 -311 -28 -405 21 -108 55
-159 139 -167 280 -11 190 73 317 238 364 81 22 247 15 323 -15z"/>
<path d="M2401 2426 c-19 -7 -44 -25 -55 -40 -19 -25 -19 -29 -6 -53 29 -52
130 -51 179 1 12 13 25 42 28 65 l6 41 -59 -1 c-33 0 -75 -6 -93 -13z"/>
<path d="M2411 1577 c-59 -30 -85 -122 -67 -242 11 -71 41 -98 113 -103 56 -4
63 -2 94 26 l34 30 3 105 c3 83 0 111 -13 137 -27 51 -109 75 -164 47z"/>
<path d="M3264 1586 c-37 -17 -64 -52 -64 -83 0 -23 2 -23 120 -23 l120 0 0
25 c0 14 -13 39 -28 56 -33 37 -98 48 -148 25z"/>
</g>
</svg>
